<svg width="50" height="50" viewBox="0 0 50 50" fill="none" xmlns="http://www.w3.org/2000/svg">
<path d="M31.5556 36V33.5555C31.5556 32.2589 31.0405 31.0154 30.1236 30.0985C29.2068 29.1817 27.9633 28.6666 26.6667 28.6666H16.8889C15.5923 28.6666 14.3488 29.1817 13.4319 30.0985C12.5151 31.0154 12 32.2589 12 33.5555V36" stroke="#7D7D7D" stroke-width="2" stroke-linecap="round" stroke-linejoin="round"/>
<path d="M21.7778 23.7778C24.4779 23.7778 26.6667 21.5889 26.6667 18.8889C26.6667 16.1888 24.4779 14 21.7778 14C19.0777 14 16.8889 16.1888 16.8889 18.8889C16.8889 21.5889 19.0777 23.7778 21.7778 23.7778Z" stroke="#7D7D7D" stroke-width="2" stroke-linecap="round" stroke-linejoin="round"/>
<path d="M38.8889 36V33.5556C38.8881 32.4723 38.5276 31.4201 37.8639 30.5639C37.2002 29.7078 36.2711 29.0964 35.2222 28.8256" stroke="#7D7D7D" stroke-width="2" stroke-linecap="round" stroke-linejoin="round"/>
<path d="M30.3333 14.1589C31.3849 14.4282 32.317 15.0398 32.9826 15.8973C33.6483 16.7548 34.0096 17.8095 34.0096 18.895C34.0096 19.9806 33.6483 21.0353 32.9826 21.8928C32.317 22.7503 31.3849 23.3619 30.3333 23.6312" stroke="#7D7D7D" stroke-width="2" stroke-linecap="round" stroke-linejoin="round"/>
</svg>
