<svg width="50" height="50" viewBox="0 0 50 50" fill="none" xmlns="http://www.w3.org/2000/svg">
<path d="M35.9993 30.4712V33.7831C36.0006 34.0906 35.9375 34.3949 35.814 34.6766C35.6906 34.9583 35.5096 35.2112 35.2826 35.419C35.0556 35.6269 34.7876 35.7851 34.4958 35.8836C34.2039 35.9821 33.8947 36.0187 33.5879 35.991C30.1841 35.6219 26.9145 34.4611 24.0418 32.6019C21.3691 30.9069 19.1032 28.6455 17.4049 25.9781C15.5354 23.0981 14.3721 19.8191 14.009 16.4067C13.9813 16.1015 14.0177 15.7938 14.1157 15.5033C14.2138 15.2128 14.3713 14.9459 14.5784 14.7195C14.7855 14.4931 15.0375 14.3122 15.3184 14.1884C15.5994 14.0645 15.9031 14.0004 16.2102 14.0001H19.5287C20.0655 13.9948 20.5859 14.1846 20.993 14.5339C21.4 14.8833 21.6659 15.3684 21.741 15.8989C21.8811 16.9588 22.1408 17.9995 22.5153 19.0011C22.6641 19.3962 22.6963 19.8256 22.6081 20.2385C22.5199 20.6513 22.3149 21.0303 22.0175 21.3304L20.6127 22.7324C22.1874 25.4963 24.4803 27.7847 27.2496 29.3562L28.6545 27.9542C28.9552 27.6574 29.3349 27.4528 29.7486 27.3648C30.1622 27.2767 30.5925 27.3089 30.9884 27.4574C31.992 27.8312 33.0348 28.0904 34.0967 28.2302C34.6341 28.3058 35.1248 28.576 35.4756 28.9892C35.8264 29.4024 36.0128 29.9298 35.9993 30.4712Z" stroke="#7D7D7D" stroke-width="2" stroke-linecap="round" stroke-linejoin="round"/>
</svg>
