<svg width="50" height="50" viewBox="0 0 50 50" fill="none" xmlns="http://www.w3.org/2000/svg">
<path d="M32.3333 14C31.3609 14 30.4282 14.3863 29.7406 15.0739C29.053 15.7616 28.6667 16.6942 28.6667 17.6667V32.3333C28.6667 33.3058 29.053 34.2384 29.7406 34.9261C30.4282 35.6137 31.3609 36 32.3333 36C33.3058 36 34.2384 35.6137 34.9261 34.9261C35.6137 34.2384 36 33.3058 36 32.3333C36 31.3609 35.6137 30.4282 34.9261 29.7406C34.2384 29.053 33.3058 28.6667 32.3333 28.6667H17.6667C16.6942 28.6667 15.7616 29.053 15.0739 29.7406C14.3863 30.4282 14 31.3609 14 32.3333C14 33.3058 14.3863 34.2384 15.0739 34.9261C15.7616 35.6137 16.6942 36 17.6667 36C18.6391 36 19.5718 35.6137 20.2594 34.9261C20.947 34.2384 21.3333 33.3058 21.3333 32.3333V17.6667C21.3333 16.6942 20.947 15.7616 20.2594 15.0739C19.5718 14.3863 18.6391 14 17.6667 14C16.6942 14 15.7616 14.3863 15.0739 15.0739C14.3863 15.7616 14 16.6942 14 17.6667C14 18.6391 14.3863 19.5718 15.0739 20.2594C15.7616 20.947 16.6942 21.3333 17.6667 21.3333H32.3333C33.3058 21.3333 34.2384 20.947 34.9261 20.2594C35.6137 19.5718 36 18.6391 36 17.6667C36 16.6942 35.6137 15.7616 34.9261 15.0739C34.2384 14.3863 33.3058 14 32.3333 14Z" stroke="#7D7D7D" stroke-width="2" stroke-linecap="round" stroke-linejoin="round"/>
</svg>
