<svg width="50" height="50" viewBox="0 0 50 50" fill="none" xmlns="http://www.w3.org/2000/svg">
<path d="M32 20.2C33.9882 20.2 35.6 18.5882 35.6 16.6C35.6 14.6118 33.9882 13 32 13C30.0118 13 28.4 14.6118 28.4 16.6C28.4 18.5882 30.0118 20.2 32 20.2Z" stroke="#7D7D7D" stroke-width="2" stroke-linecap="round" stroke-linejoin="round"/>
<path d="M17.6 28.5999C19.5882 28.5999 21.2 26.9881 21.2 24.9999C21.2 23.0117 19.5882 21.3999 17.6 21.3999C15.6118 21.3999 14 23.0117 14 24.9999C14 26.9881 15.6118 28.5999 17.6 28.5999Z" stroke="#7D7D7D" stroke-width="2" stroke-linecap="round" stroke-linejoin="round"/>
<path d="M32 37C33.9882 37 35.6 35.3883 35.6 33.4C35.6 31.4118 33.9882 29.8 32 29.8C30.0118 29.8 28.4 31.4118 28.4 33.4C28.4 35.3883 30.0118 37 32 37Z" stroke="#7D7D7D" stroke-width="2" stroke-linecap="round" stroke-linejoin="round"/>
<path d="M20.708 26.812L28.904 31.588" stroke="#7D7D7D" stroke-width="2" stroke-linecap="round" stroke-linejoin="round"/>
<path d="M28.892 18.4121L20.708 23.1881" stroke="#7D7D7D" stroke-width="2" stroke-linecap="round" stroke-linejoin="round"/>
</svg>
